<?xml version="1.0" encoding="UTF-8"?><svg viewBox="0 0 116 18" xmlns="http://www.w3.org/2000/svg"><g id="Wikipedia" fill-rule="evenodd" fill="#54595D"><path d="M14.233.292c.914.026 1.383.053 1.951.053.569 0 1.186-.026 1.804-.053.147.158.147.715 0 .874-1.285.212-1.822 1.22-2.43 2.462L13.754 7.31l3.16 7.012h.113l4.693-10.88c.586-1.433.543-2.145-1.062-2.277-.149-.159-.149-.715 0-.874 1.16.026 1.877.053 2.446.053.569 0 1.186-.026 2.174-.053.149.158.149.715 0 .874-1.63.212-1.914 1.223-2.428 2.462L17 17.13c-.173.397-.321.609-.592.609-.247 0-.438-.215-.569-.61l-3.323-7.684L8.87 17.13c-.147.397-.321.609-.593.609-.246 0-.42-.212-.567-.61L2.336 3.577c-.754-1.88-.804-2.277-2.212-2.409C-.024 1.008-.049.452.1.293 1.26.32 1.68.346 2.669.346 3.633.346 4.25.32 5.412.293c.149.158.149.715 0 .874-1.557.184-1.623.603-1.002 2.118l4.523 11.039h.113l2.76-6.015-2.082-4.733c-.828-1.88-1.026-2.25-2.089-2.409-.147-.159-.173-.715-.024-.874.79.026 1.21.053 2.199.053.963 0 1.359-.026 2.248-.053.149.158.149.715 0 .874-1.038.16-.939.608-.262 2.118l1.216 2.674.109.119 1.309-2.635c.763-1.535.865-2.117-.197-2.276-.149-.16-.149-.717 0-.875z"/><path d="M28.508 14.19c0 2.197.272 2.304 1.778 2.41.149.158.149.714 0 .873-1.062-.025-1.68-.053-2.742-.053-1.087 0-1.73.027-2.767.053-.148-.159-.148-.715 0-.874 1.507-.132 1.78-.212 1.78-2.408V8.47c0-2.196-.272-2.302-1.78-2.408-.148-.159-.148-.715 0-.874 1.062.027 1.68.053 2.743.053 1.087 0 1.73-.025 2.768-.053.148.159.148.715 0 .874-1.508.132-1.78.212-1.78 2.409v5.719z"/><path d="M32.633 6.063c-.148-.159-.148-.715 0-.874 1.038.027 1.68.053 2.767.053.915 0 1.31-.025 2.372-.053.148.159.148.715 0 .874-1.186.132-1.408.212-1.408 2.409v2.356c.815 0 1.539-.418 2.594-1.695 1.903-2.303 2.15-2.992.915-3.07-.149-.16-.149-.716 0-.875 1.062.027 2.001.053 2.718.053.642 0 1.062-.025 1.73-.053.147.16.147.715 0 .874-.988.053-1.895.187-2.645 1.112l-2.125 2.62c-.42.478-.568.769-.568.98 0 .16.099.292.223.45l3.656 4.608c.324.402.915.687 1.582.766.147.16.147.689 0 .848 0 0-1.211-.027-1.903-.027-.643 0-1.26.027-1.533.053v-.37c0-.345-.024-.635-.37-1.059l-2.742-3.654c-.37-.53-.989-.662-1.532-.662v2.462c0 2.198.223 2.277 1.408 2.41.148.158.148.714 0 .873-1.062-.025-1.458-.053-2.372-.053-1.087 0-1.73.027-2.767.053-.148-.159-.148-.715 0-.874 1.507-.132 1.778-.211 1.778-2.409V8.471c0-2.197-.271-2.276-1.778-2.408"/><path d="M50.049 14.19c0 2.197.271 2.304 1.778 2.41.149.158.149.714 0 .873-1.062-.025-1.68-.053-2.742-.053-1.087 0-1.73.027-2.767.053-.148-.159-.148-.715 0-.874 1.507-.132 1.778-.212 1.778-2.408V8.47c0-2.196-.271-2.302-1.778-2.408-.148-.159-.148-.715 0-.874 1.062.027 1.68.053 2.743.053 1.086 0 1.73-.025 2.767-.053.149.159.149.715 0 .874-1.506.132-1.778.212-1.778 2.409v5.719h-.001z"/><path d="M57.978 11.384c.494.212 1.111.29 1.606.29 1.483 0 2.125-1.029 2.125-2.937 0-1.857-.791-2.675-2.248-2.675-1.187 0-1.483.344-1.483 1.192v4.13zm1.78 5.215c.147.16.147.715 0 .874-1.064-.025-1.681-.053-2.744-.053-1.086 0-1.73.027-2.767.053-.148-.159-.148-.715 0-.874 1.507-.132 1.778-.212 1.778-2.408V8.47c0-2.196-.271-2.302-1.778-2.408-.148-.159-.148-.715 0-.874 1.062.027 1.68.053 2.742.053.668 0 1.705-.053 2.62-.053 3.507 0 4.25 1.854 4.25 3.23 0 1.589-1.013 4.13-4.325 4.13-.618 0-1.111-.105-1.556-.318v1.96c0 2.196.272 2.302 1.78 2.408z"/><path d="M69.464 11.463v3.971c0 .503.346 1.165.791 1.165h2.052c1.556 0 2.273-1.324 2.668-2.885.27-.08.469-.026.69.106-.172 1.112-.444 2.568-.74 3.653 0 0-1.63-.053-2.619-.053H68.5s-1.73.027-2.768.053c-.147-.159-.147-.715 0-.874 1.508-.132 1.779-.211 1.779-2.408V8.47c0-2.196-.27-2.302-1.779-2.408-.147-.159-.147-.715 0-.874 1.064.027 2.743.053 2.743.053h5.115c.495 0 .667-.053 1.013-.105.05 0 .074.026.074.08.049.184.346 2.25.444 3.15-.197.105-.42.159-.667.132-.444-1.508-.766-2.383-2.298-2.383h-1.903c-.469 0-.79.291-.79.741v3.76h1.408c1.73-.026 1.654-.292 1.704-1.483.124-.133.569-.133.692 0-.025.662-.049 1.138-.049 1.88 0 .741.023 1.165.049 1.933-.123.132-.568.132-.692 0-.05-.98.05-1.483-1.704-1.483h-1.407z"/><path d="M83.594 16.6c2.718 0 4.251-.98 4.251-4.686 0-2.754-.569-5.851-4.72-5.851-.963 0-1.58.159-1.58.821v8.524c0 .741.172 1.191 2.05 1.191m.247-11.41c4.126 0 6.152 2.754 6.152 6.274 0 4.633-3.064 6.01-5.806 6.01-1.977 0-2.867-.054-3.607-.054-1.087 0-1.73.027-2.767.053-.149-.159-.149-.715 0-.874 1.508-.132 1.778-.211 1.778-2.408V8.47c0-2.196-.27-2.302-1.778-2.408-.149-.159-.149-.715 0-.874 1.062.027 1.68.053 2.743.053.469 0 2.642-.052 3.285-.052"/><path d="M95.699 14.19c0 2.197.27 2.304 1.778 2.41.148.158.148.714 0 .873-1.063-.025-1.68-.053-2.742-.053-1.088 0-1.73.027-2.768.053-.148-.159-.148-.715 0-.874 1.508-.132 1.779-.212 1.779-2.408V8.47c0-2.196-.271-2.302-1.779-2.408-.148-.159-.148-.715 0-.874 1.063.027 1.68.053 2.743.053 1.087 0 1.73-.025 2.767-.053.148.159.148.715 0 .874-1.507.132-1.778.212-1.778 2.409v5.719z"/><path d="M109.755 9.928L107.36 2.86h-.05l-2.475 6.716c-.104.287.074.352.622.352h4.3zm-5.263 6.671c.149.16.149.715 0 .874a122.54 122.54 0 0 0-3.162-.053c-.963 0-1.284.027-2.199.053-.148-.159-.148-.715 0-.874 1.075-.079 1.819-.243 2.471-1.879L107.094.945c.282-.71.468-.945.834-.945.346 0 .487.283.667.796l5.065 14.348c.458 1.363 1.266 1.363 2.223 1.455.15.16.15.715 0 .874-.914-.025-1.803-.053-2.817-.053-.962 0-2.322.027-3.236.053-.148-.159-.148-.715 0-.874 1.176-.09 2.195.006 1.828-1.084l-1.507-4.475h-5.14c-.592 0-.74.105-.865.45l-1.36 3.838c-.383 1.088.778 1.202 1.706 1.271z"/></g></svg>