<?xml version="1.0" encoding="UTF-8" standalone="no"?>
<!-- Created with Inkscape (http://www.inkscape.org/) --><svg height="128" id="svg2811" inkscape:export-filename="folder.png" inkscape:export-xdpi="11.25" inkscape:export-ydpi="11.25" inkscape:output_extension="org.inkscape.output.svgz.inkscape" inkscape:version="0.45.1" sodipodi:docbase="/home/david/oxygen/trunk/scalable/places" sodipodi:docname="folder.svgz" sodipodi:version="0.32" version="1.0" width="128" xmlns="http://www.w3.org/2000/svg" xmlns:cc="http://web.resource.org/cc/" xmlns:dc="http://purl.org/dc/elements/1.1/" xmlns:inkscape="http://www.inkscape.org/namespaces/inkscape" xmlns:rdf="http://www.w3.org/1999/02/22-rdf-syntax-ns#" xmlns:sodipodi="http://sodipodi.sourceforge.net/DTD/sodipodi-0.dtd" xmlns:svg="http://www.w3.org/2000/svg" xmlns:xlink="http://www.w3.org/1999/xlink">
  <metadata>
    <rdf:RDF xmlns:cc="http://web.resource.org/cc/" xmlns:dc="http://purl.org/dc/elements/1.1/" xmlns:rdf="http://www.w3.org/1999/02/22-rdf-syntax-ns#">
      <cc:Work rdf:about="">
        <dc:title></dc:title>
        <dc:description></dc:description>
        <dc:subject>
          <rdf:Bag>
            <rdf:li>unsorted</rdf:li>
          </rdf:Bag>
        </dc:subject>
        <dc:publisher>
          <cc:Agent rdf:about="http://www.openclipart.org/">
            <dc:title>Open Clip Art Library, Source: Oxygen Icons, Source: Oxygen Icons, Source: Oxygen Icons, Source: Oxygen Icons</dc:title>
          </cc:Agent>
        </dc:publisher>
        <dc:creator>
          <cc:Agent>
            <dc:title></dc:title>
          </cc:Agent>
        </dc:creator>
        <dc:rights>
          <cc:Agent>
            <dc:title></dc:title>
          </cc:Agent>
        </dc:rights>
        <dc:date></dc:date>
        <dc:format>image/svg+xml</dc:format>
        <dc:type rdf:resource="http://purl.org/dc/dcmitype/StillImage"/>
        <cc:license rdf:resource="http://creativecommons.org/licenses/by-sa/3.0/ or http://creativecommons.org/licenses/LGPL/2.1/"/>
        <dc:language>en</dc:language>
      </cc:Work>
    </rdf:RDF>
  </metadata>
  <defs id="defs2813">
    <linearGradient gradientTransform="matrix(1.0033808,0,0,1,-8.2378002,8)" gradientUnits="userSpaceOnUse" id="linearGradient3067" x1="122.74438" x2="122.39215" y1="96.721588" y2="20.043535">
      <stop id="stop3069" offset="0" style="stop-color:#88c4ff;stop-opacity:1;"/>
      <stop id="stop3077" offset="0.13053299" style="stop-color:#b3d9ff;stop-opacity:1;"/>
      <stop id="stop3071" offset="0.72006166" style="stop-color:#71A8F5"/>
      <stop id="stop3073" offset="1" style="stop-color:#508ed9;stop-opacity:1;"/>
    </linearGradient>
    <linearGradient id="linearGradient2822">
      <stop id="stop2824" offset="0" style="stop-color:#ffffff;stop-opacity:1;"/>
      <stop id="stop2826" offset="1" style="stop-color:#ffffff;stop-opacity:0;"/>
    </linearGradient>
    <linearGradient gradientTransform="matrix(1.0033404,0,0,1,-8.2374684,8)" gradientUnits="userSpaceOnUse" id="XMLID_9_" x1="71.9995" x2="71.9995" y1="14.2578" y2="19.9583">
      <stop id="stop46" offset="0.25" style="stop-color:#71a8f5;stop-opacity:0;"/>
      <stop id="stop48" offset="1" style="stop-color:#0057ae;stop-opacity:1"/>
    </linearGradient>
    <linearGradient gradientTransform="matrix(1.0033876,0,0,1,1.7561237,8)" gradientUnits="userSpaceOnUse" id="XMLID_8_" x1="72.0005" x2="72.0005" y1="96" y2="20.0005">
      <stop id="stop35" offset="0" style="stop-color:#cfe7ff;stop-opacity:1;"/>
      <stop id="stop37" offset="0.5917" style="stop-color:#71A8F5"/>
      <stop id="stop39" offset="1" style="stop-color:#2C72C7"/>
    </linearGradient>
    <filter height="1.768" id="filter2807" inkscape:collect="always" width="1.0512" x="-0.0256" y="-0.384">
      <feGaussianBlur id="feGaussianBlur2809" inkscape:collect="always" stdDeviation="1.28"/>
    </filter>
    <linearGradient gradientTransform="translate(-7.999995,8)" gradientUnits="userSpaceOnUse" id="XMLID_6_" x1="72.0005" x2="72.0005" y1="96" y2="4.882812e-04">
      <stop id="stop7" offset="0" style="stop-color:#00479E"/>
      <stop id="stop9" offset="0.0769" style="stop-color:#2C72C7"/>
      <stop id="stop11" offset="0.58579999" style="stop-color:#6ea1df;stop-opacity:1;"/>
      <stop id="stop13" offset="0.96450001" style="stop-color:#adcbee;stop-opacity:1;"/>
    </linearGradient>
    <linearGradient gradientTransform="translate(10,0)" gradientUnits="userSpaceOnUse" id="linearGradient2828" inkscape:collect="always" x1="22.413761" x2="22.413761" xlink:href="#linearGradient2822" y1="28.5" y2="34.472866"/>
    <linearGradient gradientTransform="matrix(1.0033876,0,0,1,-8.2438763,8)" gradientUnits="userSpaceOnUse" id="linearGradient2838" inkscape:collect="always" x1="72.0005" x2="72.0005" xlink:href="#XMLID_8_" y1="96" y2="20.0005"/>
    <clipPath clipPathUnits="userSpaceOnUse" id="clipPath2844">
      <path d="M 133.86613,100.978 C 133.79288,102.369 132.59585,103.5 131.19913,103.5 L 16.812952,103.5 C 15.415236,103.5 14.2192,102.368 14.145947,100.979 C 14.145947,100.979 10.508666,30.967 10.508666,30.957 C 10.461513,30.301 10.673223,29.685 11.105684,29.22 C 11.539144,28.756 12.140172,28.501 12.799403,28.501 L 135.21268,28.501 C 135.8719,28.501 136.47293,28.756 136.90339,29.219 C 137.33384,29.682 137.54254,30.298 137.49137,30.966 L 133.86613,100.978 z" id="path2846" style="fill:#ff00bf"/>
    </clipPath>
    <filter height="1.8302754" id="filter2848" inkscape:collect="always" width="1.0247144" x="-0.012357198" y="-0.41513768">
      <feGaussianBlur id="feGaussianBlur2850" inkscape:collect="always" stdDeviation="0.65388509"/>
    </filter>
    <linearGradient gradientTransform="matrix(1.0033808,0,0,1,-8.2378,8)" gradientUnits="userSpaceOnUse" id="linearGradient3109" inkscape:collect="always" x1="122.74438" x2="122.74438" xlink:href="#linearGradient3067" y1="96.721588" y2="20"/>
  </defs>
  <sodipodi:namedview bordercolor="#666666" borderopacity="1.0" id="base" inkscape:current-layer="layer1" inkscape:cx="112.07642" inkscape:cy="77.849688" inkscape:document-units="px" inkscape:pageopacity="0.0" inkscape:pageshadow="2" inkscape:showpageshadow="false" inkscape:window-height="697" inkscape:window-width="1024" inkscape:window-x="250" inkscape:window-y="0" inkscape:zoom="2.8284271" pagecolor="#ffffff" showborder="false"/>
  <g id="layer1" inkscape:groupmode="layer" inkscape:label="Livello 1">
    <path d="M 117.983,19 C 117.992,17.35 116.64999,16 114.99999,16 L 44.961007,16 L 38.375006,9.414 C 37.597005,8.636 36.061006,8 34.961,8 L 13.999998,8 C 11.799996,8 9.999999,9.8 9.999999,12 L 9.999999,19 C 9.999999,19 10.999999,104 7,104 L 121,104 C 116.99999,104 117.983,19 117.983,19 z" id="path15" style="fill:url(#XMLID_6_)"/>
    <g id="g17" style="opacity:0.6;filter:url(#filter2807)" transform="matrix(1.0033404,0,0,1,-8.2374684,8)">
      <path d="M 132,96 C 132,98.2 128.4,100 124,100 L 20,100 C 15.6,100 12,98.2 12,96 C 12,93.8 15.6,92 20,92 L 124,92 C 128.4,92 132,93.8 132,96 z" id="path19"/>
    </g>
    <path d="M 124.36598,101.004 C 124.27969,102.652 122.85389,104 121.19831,104 L 6.812906,104 C 5.157329,104 3.731522,102.652 3.644228,101.004 L 0.007982,30.992 C -0.112423,29.347 1.143808,28 2.799384,28 L 125.21183,28 C 126.86741,28 128.11762,29.346 127.9912,30.991 L 124.36598,101.004 z" id="path30" style="opacity:0.9;fill:url(#linearGradient3109);fill-opacity:1"/>
    <path d="M 10.580094,28 C 10.551086,23.609 10.516087,20.392 10.500078,19 L 10.500078,12 C 10.500078,10.07 12.07033,8.5 14.000627,8.5 L 34.964921,8.5 C 35.937077,8.5 37.339294,9.081 38.026407,9.768 L 44.759457,16.5 L 115.01648,16.5 C 115.68059,16.5 116.30469,16.76 116.77576,17.233 C 117.24683,17.706 117.50487,18.333 117.50087,18.997 C 117.50087,18.997 117.57288,18.925 117.60989,18.888 C 117.48787,19.495 117.47487,21.062 117.44687,25.161 L 117.43687,28 L 117.92894,28 C 117.95994,22.468 117.99995,19 117.99995,19 C 118.00896,17.35 116.66674,16 115.01648,16 L 44.966498,16 L 38.379463,9.414 C 37.60134,8.636 36.065099,8 34.964921,8 L 14.000627,8 C 11.80028,8 10,9.8 10,12 L 10,19 C 10,19 10.041009,22.468 10.073018,28 L 10.580094,28 z" id="path32" style="fill:#5293ee;fill-opacity:1"/>
    <path d="M 9.8848616,22 C 9.8938916,23.75 9.9029216,25.755 9.9109516,28 L 118.09511,28 C 118.10414,25.755 118.11317,23.75 118.1212,22 L 9.8848616,22 z" id="path50" style="fill:url(#XMLID_9_);opacity:0.5"/>
    <path clip-path="url(#clipPath2844)" d="M 12.8125,28.5 C 12.153269,28.5 11.52721,28.754751 11.09375,29.21875 C 10.661289,29.68375 10.452847,30.312749 10.5,30.96875 C 10.5,30.968937 10.559992,32.232788 10.5625,32.28125 C 10.647737,31.886257 10.815287,31.518165 11.09375,31.21875 C 11.52721,30.754751 12.153269,30.5 12.8125,30.5 L 135.21875,30.5 C 135.87797,30.500001 136.47579,30.75575 136.90625,31.21875 C 137.18342,31.516877 137.35439,31.883216 137.4375,32.28125 L 137.5,30.96875 C 137.55117,30.30075 137.3367,29.68175 136.90625,29.21875 C 136.47579,28.75575 135.87797,28.500001 135.21875,28.5 L 12.8125,28.5 z" id="path2788" style="fill:url(#linearGradient2828);fill-opacity:1;filter:url(#filter2848)" transform="translate(-10,0)"/>
    <path d="M 125.21268,28 L 2.799403,28 C 1.143815,28 -0.1124237,29.347 0.007982,30.992 L 3.645263,101.004 C 3.731547,102.652 5.157364,104 6.812952,104 L 121.19913,104 C 122.85472,104 124.28053,102.652 124.36682,101.004 L 127.99106,30.991 C 128.11849,29.346 126.86827,28 125.21268,28 z M 123.86613,100.978 C 123.79288,102.369 122.59585,103.5 121.19913,103.5 L 6.812952,103.5 C 5.415236,103.5 4.2192,102.368 4.145947,100.979 C 4.145947,100.979 0.508666,30.967 0.508666,30.957 C 0.461513,30.301 0.673223,29.685 1.105684,29.22 C 1.539144,28.756 2.140172,28.501 2.799403,28.501 L 125.21268,28.501 C 125.8719,28.501 126.47293,28.756 126.90339,29.219 C 127.33384,29.682 127.54254,30.298 127.49137,30.966 L 123.86613,100.978 z" id="path2836" style="fill:url(#linearGradient2838)"/>
  </g>
</svg>
