<?xml version="1.0" encoding="UTF-8" standalone="no"?>
<!-- Created with Inkscape (http://www.inkscape.org/) -->

<svg
   xmlns:dc="http://purl.org/dc/elements/1.1/"
   xmlns:cc="http://creativecommons.org/ns#"
   xmlns:rdf="http://www.w3.org/1999/02/22-rdf-syntax-ns#"
   xmlns:svg="http://www.w3.org/2000/svg"
   xmlns="http://www.w3.org/2000/svg"
   xmlns:xlink="http://www.w3.org/1999/xlink"
   xmlns:sodipodi="http://sodipodi.sourceforge.net/DTD/sodipodi-0.dtd"
   xmlns:inkscape="http://www.inkscape.org/namespaces/inkscape"
   height="48px"
   id="svg7420"
   inkscape:output_extension="org.inkscape.output.svg.inkscape"
   inkscape:version="0.91 r13725"
   sodipodi:docname="view-refresh-5.svg"
   sodipodi:version="0.32"
   width="48px"
   version="1.1">
  <metadata
     id="metadata3">
    <rdf:RDF>
      <cc:Work
         rdf:about="">
        <dc:title />
        <dc:description />
        <dc:subject>
          <rdf:Bag>
            <rdf:li>unsorted</rdf:li>
          </rdf:Bag>
        </dc:subject>
        <dc:publisher>
          <cc:Agent
             rdf:about="http://www.openclipart.org/">
            <dc:title>Open Clip Art Library, Source: GNOME-Colors, Source: GNOME-Colors, Source: GNOME-Colors, Source: GNOME-Colors, Source: GNOME-Colors, Source: GNOME-Colors, Source: GNOME-Colors, Source: GNOME-Colors, Source: GNOME-Colors, Source: GNOME-Colors, Source: GNOME-Colors</dc:title>
          </cc:Agent>
        </dc:publisher>
        <dc:creator>
          <cc:Agent>
            <dc:title />
          </cc:Agent>
        </dc:creator>
        <dc:rights>
          <cc:Agent>
            <dc:title />
          </cc:Agent>
        </dc:rights>
        <dc:date />
        <dc:format>image/svg+xml</dc:format>
        <dc:type
           rdf:resource="http://purl.org/dc/dcmitype/StillImage" />
        <cc:license
           rdf:resource="http://creativecommons.org/licenses/GPL/2.0/" />
        <dc:language>en</dc:language>
      </cc:Work>
    </rdf:RDF>
  </metadata>
  <defs
     id="defs7422">
    <linearGradient
       id="linearGradient3319">
      <stop
         id="stop3321"
         offset="0"
         style="stop-color:#ffffff;stop-opacity:0;" />
      <stop
         id="stop3323"
         offset="0.57424062"
         style="stop-color:#ffffff;stop-opacity:0.14383562;" />
      <stop
         id="stop3325"
         offset="1"
         style="stop-color:#ffffff;stop-opacity:0;" />
    </linearGradient>
    <linearGradient
       gradientTransform="matrix(0.9543659,0,0,0.9543659,0.49369,1.8951134)"
       gradientUnits="userSpaceOnUse"
       id="linearGradient3317"
       inkscape:collect="always"
       x1="24.668951"
       x2="39.686337"
       xlink:href="#linearGradient3319"
       y1="42.95816"
       y2="28.50532" />
    <linearGradient
       id="linearGradient4873"
       inkscape:collect="always">
      <stop
         id="stop4875"
         offset="0"
         style="stop-color:#ffffff;stop-opacity:1;" />
      <stop
         id="stop4877"
         offset="1"
         style="stop-color:#ffffff;stop-opacity:0;" />
    </linearGradient>
    <linearGradient
       gradientTransform="matrix(0.9543659,0,0,0.9543659,0.49369,1.8951134)"
       gradientUnits="userSpaceOnUse"
       id="linearGradient3567"
       inkscape:collect="always"
       x1="21.628975"
       x2="22.245434"
       xlink:href="#linearGradient4873"
       y1="2.1102102"
       y2="43.366352" />
    <linearGradient
       id="linearGradient3266">
      <stop
         id="stop3268"
         offset="0"
         style="stop-color:#204a87;stop-opacity:1" />
      <stop
         id="stop3270"
         offset="1"
         style="stop-color:#204a87;stop-opacity:0" />
    </linearGradient>
    <linearGradient
       gradientTransform="translate(3.86e-4,-0.9995213)"
       gradientUnits="userSpaceOnUse"
       id="linearGradient3272"
       inkscape:collect="always"
       x1="33.686768"
       x2="37.039948"
       xlink:href="#linearGradient3266"
       y1="35.773647"
       y2="29.856804" />
    <linearGradient
       id="linearGradient3276"
       inkscape:collect="always">
      <stop
         id="stop3278"
         offset="0"
         style="stop-color:#3465a4;stop-opacity:1" />
      <stop
         id="stop3280"
         offset="1"
         style="stop-color:#3465a4;stop-opacity:0" />
    </linearGradient>
    <linearGradient
       gradientTransform="translate(3.86e-4,-0.9995213)"
       gradientUnits="userSpaceOnUse"
       id="linearGradient3282"
       inkscape:collect="always"
       x1="31.226292"
       x2="34.96563"
       xlink:href="#linearGradient3276"
       y1="34.600941"
       y2="26.842505" />
    <linearGradient
       id="linearGradient3533">
      <stop
         id="stop3535"
         offset="0"
         style="stop-color:#729fcf;stop-opacity:1" />
      <stop
         id="stop3545"
         offset="1"
         style="stop-color:#3465a4;stop-opacity:1" />
    </linearGradient>
    <linearGradient
       gradientTransform="matrix(0.9543659,0,0,0.9543659,0.49369,1.8951134)"
       gradientUnits="userSpaceOnUse"
       id="linearGradient3573"
       inkscape:collect="always"
       x1="24.663708"
       x2="36.277157"
       xlink:href="#linearGradient3533"
       y1="1.1526506"
       y2="31.443766" />
  </defs>
  <sodipodi:namedview
     bordercolor="#666666"
     borderopacity="1.0"
     id="base"
     inkscape:current-layer="layer1"
     inkscape:cx="24"
     inkscape:cy="24"
     inkscape:document-units="px"
     inkscape:grid-bbox="true"
     inkscape:pageopacity="0.0"
     inkscape:pageshadow="2"
     inkscape:window-height="1132"
     inkscape:window-width="1471"
     inkscape:window-x="152"
     inkscape:window-y="0"
     inkscape:zoom="7"
     pagecolor="#ffffff"
     showgrid="true"
     inkscape:window-maximized="0" />
  <g
     id="layer1"
     inkscape:groupmode="layer"
     inkscape:label="Layer 1">
    <g
       id="layer2"
       style="display:inline"
       transform="translate(-1.590352,-1.0136895)" />
    <g
       id="g2630"
       inkscape:label="sdf"
       style="display:inline"
       transform="translate(-70.604319,-2.1799942)" />
    <g
       id="layer6"
       inkscape:label="Shadow"
       transform="matrix(0.9248169,0,0,0.9248169,-221.70714,13.0581)" />
    <g
       id="g2161"
       inkscape:label="Base"
       style="display:inline"
       transform="matrix(0.9248169,0,0,0.9248169,-221.70714,13.0581)" />
    <g
       id="layer5"
       inkscape:label="shadiw"
       transform="matrix(0.9248169,0,0,0.9248169,-270.77613,-10.260991)" />
    <g
       id="g2482"
       inkscape:label="Shadow"
       transform="matrix(0.9248169,0,0,0.9248169,-236.49158,13.317533)" />
    <g
       id="g2484"
       inkscape:label="Base"
       style="display:inline"
       transform="matrix(0.9248169,0,0,0.9248169,-236.49158,13.317533)" />
    <g
       id="g2486"
       inkscape:label="shadiw"
       transform="matrix(0.9248169,0,0,0.9248169,-285.56057,-10.001558)" />
    <g
       id="g2309"
       inkscape:label="Shadow"
       transform="matrix(0.9248169,0,0,0.9248169,-220.44739,16.571925)" />
    <g
       id="g2311"
       inkscape:label="Base"
       style="display:inline"
       transform="matrix(0.9248169,0,0,0.9248169,-220.44739,16.571925)" />
    <g
       id="g2313"
       inkscape:label="shadiw"
       transform="matrix(0.9248169,0,0,0.9248169,-269.51638,-6.7471665)" />
    <g
       id="g2511"
       inkscape:label="Shadow"
       transform="matrix(0.9248169,0,0,0.9248169,-335.99693,22.698689)" />
    <g
       id="g2513"
       inkscape:label="Base"
       style="display:inline"
       transform="matrix(0.9248169,0,0,0.9248169,-335.99693,22.698689)" />
    <g
       id="g2515"
       inkscape:label="shadiw"
       transform="matrix(0.9248169,0,0,0.9248169,-385.06592,-0.6204024)" />
    <g
       id="g2802"
       inkscape:label="Shadow"
       transform="matrix(0.9248169,0,0,0.9248169,-278.60826,-29.839987)" />
    <g
       id="g2170"
       inkscape:label="Base"
       style="display:inline"
       transform="matrix(0.9248169,0,0,0.9248169,-278.60826,-29.839987)" />
    <g
       id="g5398"
       inkscape:label="Layer 1"
       transform="matrix(0.9248169,0,0,0.9248169,-397.47515,-3.4577371)" />
    <g
       id="g2806"
       inkscape:label="shadiw"
       transform="matrix(0.9248169,0,0,0.9248169,-397.47515,-3.4577371)" />
    <g
       id="g2558"
       inkscape:label="white"
       transform="matrix(0.9248169,0,0,0.9248169,-397.47515,-3.4577371)" />
    <g
       id="g3678"
       inkscape:label="Layer 1"
       style="display:inline"
       transform="matrix(0.9248169,0,0,0.9248169,-470.53348,-11.184438)" />
    <g
       id="g3680"
       inkscape:label="bottom"
       transform="matrix(0.9248169,0,0,0.9248169,-470.53348,-11.184438)" />
    <g
       id="g4299"
       inkscape:label="back"
       style="display:inline"
       transform="matrix(0.9248169,0,0,0.9248169,-470.53348,-11.184438)" />
    <g
       id="g3698"
       inkscape:label="shadiw"
       transform="matrix(0.9248169,0,0,0.9248169,-325.77716,-2.9465344)" />
    <g
       id="g3760"
       inkscape:label="shadiw"
       transform="matrix(0.9248169,0,0,0.9248169,-170.10393,1.9182513)" />
    <g
       id="g5431"
       inkscape:label="Shadow"
       transform="matrix(0.9248169,0,0,0.9248169,-497.66445,-35.271408)" />
    <g
       id="g4258"
       inkscape:label="Base"
       style="display:inline"
       transform="matrix(0.9248169,0,0,0.9248169,-497.66445,-35.271408)" />
    <g
       id="g5440"
       inkscape:label="new"
       transform="matrix(0.9248169,0,0,0.9248169,-497.66445,-35.271408)" />
    <g
       id="g3928"
       inkscape:label="Layer 1"
       style="display:inline"
       transform="matrix(0.9248169,0,0,0.9248169,-468.59088,-22.101001)" />
    <g
       id="g3930"
       inkscape:label="bottom"
       transform="matrix(0.9248169,0,0,0.9248169,-468.59088,-22.101001)" />
    <g
       id="g3932"
       inkscape:label="back"
       style="display:inline"
       transform="matrix(0.9248169,0,0,0.9248169,-468.59088,-22.101001)" />
    <g
       id="g3934"
       inkscape:label="shadiw"
       transform="matrix(0.9248169,0,0,0.9248169,-323.83456,-13.863096)" />
    <g
       id="g3936"
       inkscape:label="shadiw"
       transform="matrix(0.9248169,0,0,0.9248169,-168.16133,-8.9983115)" />
    <g
       id="g3961"
       inkscape:label="Shadow"
       transform="matrix(0.9248169,0,0,0.9248169,-495.72186,-46.187971)" />
    <g
       id="g3963"
       inkscape:label="Base"
       style="display:inline"
       transform="matrix(0.9248169,0,0,0.9248169,-495.72186,-46.187971)" />
    <g
       id="layer7"
       inkscape:label="new"
       transform="matrix(0.9248169,0,0,0.9248169,-495.72186,-46.187971)" />
    <g
       id="g2561"
       inkscape:label="Shadow"
       transform="matrix(0.9248169,0,0,0.9248169,-535.84811,3.0487262)" />
    <g
       id="g2860"
       inkscape:label="Base"
       style="display:inline"
       transform="matrix(0.9248169,0,0,0.9248169,-535.84811,3.0487262)" />
    <g
       id="g2564"
       inkscape:label="shadiw"
       transform="matrix(0.9248169,0,0,0.9248169,-584.9171,-20.270364)" />
    <g
       id="g2790"
       inkscape:label="Shadow"
       transform="matrix(0.9248169,0,0,0.9248169,-271.28925,-4.8227983)" />
    <g
       id="g2792"
       inkscape:label="Base"
       style="display:inline"
       transform="matrix(0.9248169,0,0,0.9248169,-271.28925,-4.8227983)" />
    <g
       id="g2794"
       inkscape:label="Layer 1"
       transform="matrix(0.9248169,0,0,0.9248169,-390.15614,21.559457)" />
    <g
       id="g2796"
       inkscape:label="shadiw"
       transform="matrix(0.9248169,0,0,0.9248169,-390.15614,21.559457)" />
    <g
       id="g2798"
       inkscape:label="white"
       transform="matrix(0.9248169,0,0,0.9248169,-390.15614,21.559457)" />
    <g
       id="g2886"
       inkscape:label="Layer 1"
       style="display:inline"
       transform="matrix(0.9248169,0,0,0.9248169,-463.21447,13.832751)" />
    <g
       id="g2888"
       inkscape:label="bottom"
       transform="matrix(0.9248169,0,0,0.9248169,-463.21447,13.832751)" />
    <g
       id="g2804"
       inkscape:label="back"
       style="display:inline"
       transform="matrix(0.9248169,0,0,0.9248169,-463.21447,13.832751)" />
    <g
       id="g2891"
       inkscape:label="shadiw"
       transform="matrix(0.9248169,0,0,0.9248169,-318.45815,22.070659)" />
    <g
       id="g2808"
       inkscape:label="shadiw"
       transform="matrix(0.9248169,0,0,0.9248169,-162.78492,26.935445)" />
    <g
       id="g2810"
       inkscape:label="Shadow"
       transform="matrix(0.9248169,0,0,0.9248169,-490.34544,-10.254218)" />
    <g
       id="g2812"
       inkscape:label="Base"
       style="display:inline"
       transform="matrix(0.9248169,0,0,0.9248169,-490.34544,-10.254218)" />
    <g
       id="g2814"
       inkscape:label="new"
       transform="matrix(0.9248169,0,0,0.9248169,-490.34544,-10.254218)" />
    <g
       id="g2816"
       inkscape:label="Layer 1"
       style="display:inline"
       transform="matrix(0.9248169,0,0,0.9248169,-461.27187,2.9161879)" />
    <g
       id="g2818"
       inkscape:label="bottom"
       transform="matrix(0.9248169,0,0,0.9248169,-461.27187,2.9161879)" />
    <g
       id="g2820"
       inkscape:label="back"
       style="display:inline"
       transform="matrix(0.9248169,0,0,0.9248169,-461.27187,2.9161879)" />
    <g
       id="g2823"
       inkscape:label="shadiw"
       transform="matrix(0.9248169,0,0,0.9248169,-316.51555,11.154093)" />
    <g
       id="g2825"
       inkscape:label="shadiw"
       transform="matrix(0.9248169,0,0,0.9248169,-160.84232,16.018879)" />
    <g
       id="g2827"
       inkscape:label="Shadow"
       transform="matrix(0.9248169,0,0,0.9248169,-488.40285,-21.170781)" />
    <g
       id="g2829"
       inkscape:label="Base"
       style="display:inline"
       transform="matrix(0.9248169,0,0,0.9248169,-488.40285,-21.170781)" />
    <g
       id="g2831"
       inkscape:label="new"
       transform="matrix(0.9248169,0,0,0.9248169,-488.40285,-21.170781)" />
    <path
       d="M 24.000386,32.500479 C 19.105434,32.446603 15.447182,28.373743 15.501299,23.500479 C 15.555418,18.627217 19.605431,14.4466 24.500386,14.500479 C 26.864296,14.526497 28.939366,15.01027 30.637142,16.648064 L 26.500386,21.500479 L 42.500386,21.500479 C 42.500386,21.500479 42.500386,5.5004787 42.500386,5.5004787 L 38.029283,9.1100087 C 34.321057,5.4660148 30.034538,3.5566302 24.561664,3.4963914 C 13.428105,3.3738462 4.548551,12.443375 4.42546,23.527601 C 4.302368,34.611826 13.161193,43.281456 24.294752,43.404"
       id="path3372"
       sodipodi:nodetypes="csscccccssc"
       style="fill:url(#linearGradient3573);fill-opacity:1;stroke:#204a87;stroke-width:1;stroke-linecap:butt;stroke-linejoin:round;stroke-miterlimit:4;stroke-dasharray:none;stroke-opacity:1" />
    <path
       d="M 23.864499,43.402143 C 33.174618,43.504616 43.593315,36.31105 43.57656,23.876363 L 33.717429,23.799619 C 33.535921,28.872085 28.170807,32.689367 23.750386,32.500479"
       id="path3453"
       sodipodi:nodetypes="cccc"
       style="fill:url(#linearGradient3282);fill-opacity:1;stroke:url(#linearGradient3272);stroke-width:1;stroke-linecap:butt;stroke-linejoin:miter;stroke-miterlimit:4;stroke-dasharray:none;stroke-opacity:1" />
    <path
       d="M 24.250386,33.650479 C 18.827231,33.571193 14.50609,29.782019 14.500386,23.500479 C 14.495518,18.104098 19.172555,13.281345 24.595711,13.360631 C 27.268786,13.399711 30.308589,14.250668 32.322375,16.527482 L 28.996342,20.360613 L 41.379814,20.380905 C 41.379814,20.380905 41.379814,7.9168396 41.379814,7.9168396 L 38.002186,10.791566 C 34.460164,6.8406657 30.021171,4.6907675 24.480768,4.6353259 C 13.882981,4.5292764 5.674253,13.036629 5.592359,23.634383 C 5.851431,35.490122 14.98514,42.25314 24.294902,42.455875"
       id="path3370"
       sodipodi:nodetypes="csscccccscc"
       style="opacity:0.4;fill:none;fill-opacity:1;stroke:url(#linearGradient3567);stroke-width:1.19299996;stroke-linecap:butt;stroke-linejoin:miter;stroke-miterlimit:4;stroke-dasharray:none;stroke-opacity:1" />
    <path
       d="M 23.719463,42.296437 C 31.672017,42.296437 42.51838,36.762098 42.61857,23.907665 L 34.561684,23.701374 C 34.56892,28.917281 29.815211,33.426437 24.251961,33.591384"
       id="path2557"
       sodipodi:nodetypes="cccc"
       style="fill:none;fill-opacity:1;stroke:url(#linearGradient3317);stroke-width:1.1929574;stroke-linecap:butt;stroke-linejoin:round;stroke-miterlimit:4;stroke-dasharray:none;stroke-opacity:1" />
  </g>
</svg>
