<?xml version="1.0" encoding="utf-8"?>
<!DOCTYPE svg PUBLIC "-//W3C//DTD SVG 1.1//EN" "http://www.w3.org/Graphics/SVG/1.1/DTD/svg11.dtd">
<svg version="1.1" id="Layer_1" xmlns="http://www.w3.org/2000/svg" xmlns:xlink="http://www.w3.org/1999/xlink" x="0px" y="0px"
	 width="12px" height="13.836px" viewBox="0 0 12 13.836" enable-background="new 0 0 12 13.836" xml:space="preserve">
<path fill="#777777" d="M1.938,6.656c-1.32,1.485-1.47,3.15-0.97,4.25c0.323,0.707,0.78,1.127,1.313,1.375
	c0.496,0.229,1.074,0.273,1.658,0.282c0.023,0,0.04,0.03,0.062,0.03h4.187c0.61,0,1.225-0.125,1.75-0.405
	c0.527-0.28,0.961-0.718,1.188-1.376c0.335-0.964,0.175-2.529-1.094-4.03C9.094,7.954,7.68,8.719,6.065,8.719
	c-1.677,0-3.182-0.812-4.125-2.063H1.938z"/>
<path fill="#777777" d="M6.063,0c-1.89,0-3.595,1.674-3.594,3.563C2.467,5.45,4.173,7.155,6.06,7.155
	c1.89,0,3.564-1.705,3.563-3.593C9.625,1.673,7.95,0,6.063,0L6.063,0z"/>
</svg>
